<?xml version="1.0" encoding="UTF-8" standalone="no"?>
<svg width="155px" height="35px" viewBox="0 0 155 35" version="1.1" xmlns="http://www.w3.org/2000/svg" xmlns:xlink="http://www.w3.org/1999/xlink">
    <!-- Generator: Sketch 3.6.1 (26313) - http://www.bohemiancoding.com/sketch -->
    <title>Logo</title>
    <desc>Created with Sketch.</desc>
    <defs></defs>
    <g id="Page-1" stroke="none" stroke-width="1" fill="none" fill-rule="evenodd">
        <g id="Logo">
            <path d="M58.152,7.912 L61.728,7.912 C62.5120039,7.912 63.1799972,8.0319988 63.732,8.272 C64.2840028,8.5120012 64.7359982,8.831998 65.088,9.232 C65.4400018,9.632002 65.6919992,10.0919974 65.844,10.612 C65.9960008,11.1320026 66.072,11.6719972 66.072,12.232 L66.072,12.856 C66.072,13.3200023 66.0360004,13.7119984 65.964,14.032 C65.8919996,14.3520016 65.7840007,14.6319988 65.64,14.872 C65.4959993,15.1120012 65.320001,15.3239991 65.112,15.508 C64.903999,15.6920009 64.6640014,15.8639992 64.392,16.024 C64.9680029,16.2960014 65.3919986,16.6999973 65.664,17.236 C65.9360014,17.7720027 66.072,18.4879955 66.072,19.384 L66.072,20.344 C66.072,21.8480075 65.7080036,22.999996 64.98,23.8 C64.2519964,24.600004 63.088008,25 61.488,25 L58.152,25 L58.152,7.912 Z M60.6,22.552 L61.656,22.552 C62.1520025,22.552 62.5399986,22.4800007 62.82,22.336 C63.1000014,22.1919993 63.3119993,21.9920013 63.456,21.736 C63.6000007,21.4799987 63.6879998,21.1760018 63.72,20.824 C63.7520002,20.4719982 63.768,20.0880021 63.768,19.672 C63.768,19.2399978 63.7440002,18.8640016 63.696,18.544 C63.6479998,18.2239984 63.5480008,17.9560011 63.396,17.74 C63.2439992,17.5239989 63.0320014,17.3600006 62.76,17.248 C62.4879986,17.1359994 62.1280022,17.08 61.68,17.08 L60.6,17.08 L60.6,22.552 Z M60.6,14.92 L61.704,14.92 C62.5200041,14.92 63.0679986,14.716002 63.348,14.308 C63.6280014,13.899998 63.768,13.3040039 63.768,12.52 C63.768,11.7519962 63.6120016,11.1760019 63.3,10.792 C62.9879984,10.4079981 62.4240041,10.216 61.608,10.216 L60.6,10.216 L60.6,14.92 Z M71.832,12.832 L71.784,12.832 L70.584,19.024 L73.032,19.024 L71.832,12.832 Z M70.8,7.912 L72.84,7.912 L76.656,25 L74.208,25 L73.488,21.328 L70.152,21.328 L69.432,25 L66.984,25 L70.8,7.912 Z M87.12,25 L84.816,25 L82.944,13.912 L82.896,13.912 L81.048,25 L78.744,25 L76.2,7.912 L78.792,7.912 L80.016,18.76 L80.064,18.76 L81.984,7.912 L83.856,7.912 L85.848,19.024 L85.896,19.024 L87.072,7.912 L89.664,7.912 L87.12,25 Z M94.224,12.832 L94.176,12.832 L92.976,19.024 L95.424,19.024 L94.224,12.832 Z M93.192,7.912 L95.232,7.912 L99.048,25 L96.6,25 L95.88,21.328 L92.544,21.328 L91.824,25 L89.376,25 L93.192,7.912 Z" id="BAWA" fill="#A33135"></path>
            <path d="M96,12.2685547 L150.347402,12.2685547 L151.110352,9 L150.857422,13.7685547 L96,17.7529297 L96,12.2685547 Z" id="Path-1" fill="#A33136" transform="translate(123.555176, 13.376465) rotate(-3.000000) translate(-123.555176, -13.376465) "></path>
            <path d="M5,12.2685547 L59.3474019,12.2685547 L60.1103516,9 L59.8574219,13.7685547 L5,17.7529297 L5,12.2685547 Z" id="Path-1" fill="#A33136" transform="translate(32.555176, 13.376465) scale(-1, 1) rotate(-3.000000) translate(-32.555176, -13.376465) "></path>
            <circle id="Oval-1" stroke="#A33136" cx="44.5" cy="19.5" r="4.5"></circle>
            <circle id="Oval-1" stroke="#A33136" cx="111.5" cy="19.5" r="4.5"></circle>
            <circle id="Oval-1" stroke="#A33136" cx="130" cy="16" r="3"></circle>
            <circle id="Oval-1" stroke="#A33136" cx="26" cy="16" r="3"></circle>
            <circle id="Oval-1" fill="#A33136" cx="26" cy="16" r="2"></circle>
            <path d="M130,18 C131.104569,18 132,17.1045695 132,16 C132,14.8954305 131.104569,14 130,14 C128.895431,14 128,14.8954305 128,16 C128,17.1045695 128.895431,18 130,18 Z" id="Oval-1" fill="#A33136"></path>
            <circle id="Oval-1" fill="#A33136" cx="44.5" cy="19.5" r="3.5"></circle>
            <circle id="Oval-1" fill="#A33136" cx="111.5" cy="19.5" r="3.5"></circle>
        </g>
    </g>
</svg>